<svg width="24" height="24" fill="none" xmlns="http://www.w3.org/2000/svg"><defs><clipPath id="clip26_315"><path id="Icon-Burger-menu-hover" fill="#fff" fill-opacity="0" d="M0 0h24v24H0z"/></clipPath></defs><path id="Icon-Burger-menu-hover" fill="#FFF" fill-opacity="0" d="M0 0h24v24H0z"/><g clip-path="url('#clip26_315')"><path id="Vector" d="M4 18h7a1 1 0 0 0 0-2H4a1 1 0 0 0 0 2Zm0-5h16a1 1 0 0 0 0-2H4a1 1 0 0 0 0 2Zm0-7a1 1 0 0 0 0 2h11a1 1 0 0 0 0-2H4Z" fill="#FFF" fill-opacity="1" fill-rule="nonzero"/></g></svg>